<svg xmlns="http://www.w3.org/2000/svg" width="1200" height="760" viewBox="0 0 1200 760" role="img" aria-labelledby="t d"><title id="t">Веса критериев рейтинга WMS</title><desc id="d">10 критериев суммой 100 баллов.</desc><rect width="1200" height="760" fill="#fff"/><text x="60" y="68" font-family="Arial" font-size="34" font-weight="700" fill="#0E3455">10 критериев · 100 баллов</text><text x="60" y="137" font-family="Arial" font-size="18" fill="#173f59">C1 · Фулфилмент / e-commerce</text><rect x="390" y="115" width="620" height="30" rx="8" fill="#e8f1f6"/><rect x="390" y="115" width="558" height="30" rx="8" fill="#2F6B8F"/><text x="1030" y="138" font-family="Arial" font-size="20" font-weight="700" fill="#0E3455">18</text><text x="60" y="194" font-family="Arial" font-size="18" fill="#173f59">C2 · FBO/FBS и интеграции</text><rect x="390" y="172" width="620" height="30" rx="8" fill="#e8f1f6"/><rect x="390" y="172" width="434" height="30" rx="8" fill="#2F6B8F"/><text x="1030" y="195" font-family="Arial" font-size="20" font-weight="700" fill="#0E3455">14</text><text x="60" y="251" font-family="Arial" font-size="18" fill="#173f59">C3 · Кабинет и биллинг</text><rect x="390" y="229" width="620" height="30" rx="8" fill="#e8f1f6"/><rect x="390" y="229" width="434" height="30" rx="8" fill="#2F6B8F"/><text x="1030" y="252" font-family="Arial" font-size="20" font-weight="700" fill="#0E3455">14</text><text x="60" y="308" font-family="Arial" font-size="18" fill="#173f59">C4 · Складской цикл</text><rect x="390" y="286" width="620" height="30" rx="8" fill="#e8f1f6"/><rect x="390" y="286" width="372" height="30" rx="8" fill="#2F6B8F"/><text x="1030" y="309" font-family="Arial" font-size="20" font-weight="700" fill="#0E3455">12</text><text x="60" y="365" font-family="Arial" font-size="18" fill="#173f59">C5 · ТСД и контроль</text><rect x="390" y="343" width="620" height="30" rx="8" fill="#e8f1f6"/><rect x="390" y="343" width="310" height="30" rx="8" fill="#2F6B8F"/><text x="1030" y="366" font-family="Arial" font-size="20" font-weight="700" fill="#0E3455">10</text><text x="60" y="422" font-family="Arial" font-size="18" fill="#173f59">C6 · Маркировка</text><rect x="390" y="400" width="620" height="30" rx="8" fill="#e8f1f6"/><rect x="390" y="400" width="248" height="30" rx="8" fill="#2F6B8F"/><text x="1030" y="423" font-family="Arial" font-size="20" font-weight="700" fill="#0E3455">8</text><text x="60" y="479" font-family="Arial" font-size="18" fill="#173f59">C7 · API и масштабирование</text><rect x="390" y="457" width="620" height="30" rx="8" fill="#e8f1f6"/><rect x="390" y="457" width="248" height="30" rx="8" fill="#2F6B8F"/><text x="1030" y="480" font-family="Arial" font-size="20" font-weight="700" fill="#0E3455">8</text><text x="60" y="536" font-family="Arial" font-size="18" fill="#173f59">C8 · Внедрение</text><rect x="390" y="514" width="620" height="30" rx="8" fill="#e8f1f6"/><rect x="390" y="514" width="186" height="30" rx="8" fill="#2F6B8F"/><text x="1030" y="537" font-family="Arial" font-size="20" font-weight="700" fill="#0E3455">6</text><text x="60" y="593" font-family="Arial" font-size="18" fill="#173f59">C9 · Цена</text><rect x="390" y="571" width="620" height="30" rx="8" fill="#e8f1f6"/><rect x="390" y="571" width="155" height="30" rx="8" fill="#2F6B8F"/><text x="1030" y="594" font-family="Arial" font-size="20" font-weight="700" fill="#0E3455">5</text><text x="60" y="650" font-family="Arial" font-size="18" fill="#173f59">C10 · Кейсы</text><rect x="390" y="628" width="620" height="30" rx="8" fill="#e8f1f6"/><rect x="390" y="628" width="155" height="30" rx="8" fill="#2F6B8F"/><text x="1030" y="651" font-family="Arial" font-size="20" font-weight="700" fill="#0E3455">5</text></svg>